<mxfile host="app.diagrams.net" modified="2022-12-13T17:12:35.838Z" agent="5.0 (X11; Linux x86_64) AppleWebKit/537.36 (KHTML, like Gecko) Chrome/108.0.0.0 Safari/537.36" etag="6ENOH1YudE_CWHvOYNtv" version="20.6.2" type="github" pages="4">
  <diagram id="kgpKYQtTHZ0yAKxKKP6v" name="entier">
    <mxGraphModel dx="2062" dy="1128" grid="1" gridSize="10" guides="1" tooltips="1" connect="1" arrows="1" fold="1" page="1" pageScale="1" pageWidth="850" pageHeight="1100" math="0" shadow="0">
      <root>
        <mxCell id="0" />
        <mxCell id="1" parent="0" />
        <mxCell id="luySUPQOgA1HiNmcFHuB-15" value=":client" style="shape=umlLifeline;participant=umlActor;perimeter=lifelinePerimeter;whiteSpace=wrap;html=1;container=1;collapsible=0;recursiveResize=0;verticalAlign=top;spacingTop=36;outlineConnect=0;labelBackgroundColor=default;" parent="1" vertex="1">
          <mxGeometry x="110" y="40" width="20" height="690" as="geometry" />
        </mxCell>
        <mxCell id="luySUPQOgA1HiNmcFHuB-16" value=":interface" style="shape=umlLifeline;perimeter=lifelinePerimeter;whiteSpace=wrap;html=1;container=1;collapsible=0;recursiveResize=0;outlineConnect=0;labelBackgroundColor=default;" parent="1" vertex="1">
          <mxGeometry x="210" y="40" width="155" height="590" as="geometry" />
        </mxCell>
        <mxCell id="luySUPQOgA1HiNmcFHuB-57" value="" style="shape=umlDestroy;whiteSpace=wrap;html=1;strokeWidth=3;labelBackgroundColor=default;" parent="luySUPQOgA1HiNmcFHuB-16" vertex="1">
          <mxGeometry x="62.5" y="580" width="30" height="30" as="geometry" />
        </mxCell>
        <mxCell id="luySUPQOgA1HiNmcFHuB-33" value="nouvelle commande : commande" style="shape=umlLifeline;perimeter=lifelinePerimeter;whiteSpace=wrap;html=1;container=1;collapsible=0;recursiveResize=0;outlineConnect=0;labelBackgroundColor=default;" parent="1" vertex="1">
          <mxGeometry x="375" y="230" width="170" height="270" as="geometry" />
        </mxCell>
        <mxCell id="luySUPQOgA1HiNmcFHuB-36" value="ref&amp;nbsp;" style="shape=umlFrame;whiteSpace=wrap;html=1;labelBackgroundColor=default;" parent="luySUPQOgA1HiNmcFHuB-33" vertex="1">
          <mxGeometry x="-265" y="80" width="390" height="90" as="geometry" />
        </mxCell>
        <mxCell id="luySUPQOgA1HiNmcFHuB-61" value="" style="shape=umlDestroy;whiteSpace=wrap;html=1;strokeWidth=3;labelBackgroundColor=default;" parent="luySUPQOgA1HiNmcFHuB-33" vertex="1">
          <mxGeometry x="70" y="250" width="30" height="30" as="geometry" />
        </mxCell>
        <mxCell id="luySUPQOgA1HiNmcFHuB-40" value="Ref" style="shape=umlFrame;whiteSpace=wrap;html=1;labelBackgroundColor=default;" parent="1" vertex="1">
          <mxGeometry x="105" y="440" width="710" height="100" as="geometry" />
        </mxCell>
        <mxCell id="luySUPQOgA1HiNmcFHuB-56" value="Livraison d&#39;une commande" style="text;align=left;fontStyle=1;verticalAlign=middle;spacingLeft=3;spacingRight=3;strokeColor=none;rotatable=0;points=[[0,0.5],[1,0.5]];portConstraint=eastwest;labelBackgroundColor=default;" parent="1" vertex="1">
          <mxGeometry x="170" y="477" width="160" height="26" as="geometry" />
        </mxCell>
        <mxCell id="iGJhBjlcyFtyFllywqGu-1" value="Ref" style="shape=umlFrame;whiteSpace=wrap;html=1;labelBackgroundColor=default;" parent="1" vertex="1">
          <mxGeometry x="110" y="170" width="455" height="110" as="geometry" />
        </mxCell>
        <mxCell id="iGJhBjlcyFtyFllywqGu-3" value="Créer commande" style="text;align=left;fontStyle=1;verticalAlign=middle;spacingLeft=3;spacingRight=3;strokeColor=none;rotatable=0;points=[[0,0.5],[1,0.5]];portConstraint=eastwest;labelBackgroundColor=default;" parent="1" vertex="1">
          <mxGeometry x="170" y="212" width="80" height="26" as="geometry" />
        </mxCell>
        <mxCell id="luySUPQOgA1HiNmcFHuB-37" value="Ajout d&#39;un plat du jour" style="text;align=left;fontStyle=1;verticalAlign=middle;spacingLeft=3;spacingRight=3;strokeColor=none;rotatable=0;points=[[0,0.5],[1,0.5]];portConstraint=eastwest;labelBackgroundColor=default;" parent="1" vertex="1">
          <mxGeometry x="170" y="332" width="180" height="26" as="geometry" />
        </mxCell>
        <mxCell id="luySUPQOgA1HiNmcFHuB-58" value="quitter le site" style="html=1;verticalAlign=bottom;endArrow=block;rounded=0;" parent="1" source="luySUPQOgA1HiNmcFHuB-15" target="luySUPQOgA1HiNmcFHuB-16" edge="1">
          <mxGeometry width="80" relative="1" as="geometry">
            <mxPoint x="120" y="670" as="sourcePoint" />
            <mxPoint x="200" y="670" as="targetPoint" />
            <Array as="points">
              <mxPoint x="190" y="590" />
            </Array>
          </mxGeometry>
        </mxCell>
      </root>
    </mxGraphModel>
  </diagram>
  <diagram id="kE-UTcSqWCiqaB6s_LS_" name="créer commande">
    <mxGraphModel dx="1422" dy="795" grid="1" gridSize="10" guides="1" tooltips="1" connect="1" arrows="1" fold="1" page="1" pageScale="1" pageWidth="1169" pageHeight="827" math="0" shadow="0">
      <root>
        <mxCell id="0" />
        <mxCell id="1" parent="0" />
        <mxCell id="RajAqQyUGsAF3_RqsOgA-3" value=":User" style="shape=umlLifeline;perimeter=lifelinePerimeter;whiteSpace=wrap;html=1;container=1;collapsible=0;recursiveResize=0;outlineConnect=0;labelBackgroundColor=default;" parent="1" vertex="1">
          <mxGeometry x="520" y="40" width="100" height="180" as="geometry" />
        </mxCell>
        <mxCell id="RajAqQyUGsAF3_RqsOgA-4" value="" style="html=1;points=[];perimeter=orthogonalPerimeter;labelBackgroundColor=default;rotatable=0;snapToPoint=0;" parent="RajAqQyUGsAF3_RqsOgA-3" vertex="1">
          <mxGeometry x="45" y="90" width="10" height="60" as="geometry" />
        </mxCell>
        <mxCell id="gcW5g2XLIElZYR2TtDek-2" value="Vérifier la connection" style="edgeStyle=orthogonalEdgeStyle;html=1;align=left;spacingLeft=2;endArrow=block;rounded=0;entryX=1;entryY=0;" edge="1" parent="RajAqQyUGsAF3_RqsOgA-3">
          <mxGeometry relative="1" as="geometry">
            <mxPoint x="50" y="110" as="sourcePoint" />
            <Array as="points">
              <mxPoint x="80" y="110" />
            </Array>
            <mxPoint x="55" y="130" as="targetPoint" />
          </mxGeometry>
        </mxCell>
        <mxCell id="RajAqQyUGsAF3_RqsOgA-5" value="se connecter(identifiant)" style="html=1;verticalAlign=bottom;endArrow=block;rounded=0;entryX=0.093;entryY=-0.013;entryDx=0;entryDy=0;entryPerimeter=0;" parent="1" target="RajAqQyUGsAF3_RqsOgA-1" edge="1">
          <mxGeometry relative="1" as="geometry">
            <mxPoint x="119.5" y="109.08999999999992" as="sourcePoint" />
            <mxPoint x="260" y="110" as="targetPoint" />
          </mxGeometry>
        </mxCell>
        <mxCell id="RajAqQyUGsAF3_RqsOgA-6" value="l&#39;utilisatuer est connecter" style="html=1;verticalAlign=bottom;endArrow=open;dashed=1;endSize=8;rounded=0;exitX=0.162;exitY=0.999;exitDx=0;exitDy=0;exitPerimeter=0;" parent="1" source="RajAqQyUGsAF3_RqsOgA-1" edge="1" target="CBQdQQmrXeCsM5Ka3cLZ-1">
          <mxGeometry relative="1" as="geometry">
            <mxPoint x="119.5" y="179.93000000000006" as="targetPoint" />
            <mxPoint x="250" y="170" as="sourcePoint" />
          </mxGeometry>
        </mxCell>
        <mxCell id="RajAqQyUGsAF3_RqsOgA-7" value="connection(id)" style="html=1;verticalAlign=bottom;endArrow=block;rounded=0;entryX=0.024;entryY=-0.002;entryDx=0;entryDy=0;entryPerimeter=0;snapToPoint=1;fixDash=1;bendable=0;" parent="1" target="RajAqQyUGsAF3_RqsOgA-4" edge="1">
          <mxGeometry width="80" relative="1" as="geometry">
            <mxPoint x="360" y="130" as="sourcePoint" />
            <mxPoint x="410" y="133" as="targetPoint" />
            <Array as="points" />
          </mxGeometry>
        </mxCell>
        <mxCell id="RajAqQyUGsAF3_RqsOgA-8" value="return true (bool)" style="html=1;verticalAlign=bottom;endArrow=open;dashed=1;endSize=8;rounded=0;exitX=-0.252;exitY=0.964;exitDx=0;exitDy=0;exitPerimeter=0;" parent="1" source="RajAqQyUGsAF3_RqsOgA-4" target="RajAqQyUGsAF3_RqsOgA-1" edge="1">
          <mxGeometry x="-0.1192" relative="1" as="geometry">
            <mxPoint x="390" y="160" as="sourcePoint" />
            <mxPoint x="270" y="169" as="targetPoint" />
            <mxPoint as="offset" />
          </mxGeometry>
        </mxCell>
        <mxCell id="RajAqQyUGsAF3_RqsOgA-9" value="nouvelle commande" style="html=1;verticalAlign=bottom;endArrow=block;rounded=0;entryX=1;entryY=1;entryDx=0;entryDy=0;" parent="1" target="RajAqQyUGsAF3_RqsOgA-2" edge="1">
          <mxGeometry x="0.0384" y="-10" width="80" relative="1" as="geometry">
            <mxPoint x="125.59034482758625" y="230" as="sourcePoint" />
            <mxPoint x="255.78" y="230" as="targetPoint" />
            <Array as="points">
              <mxPoint x="195.78" y="230" />
            </Array>
            <mxPoint as="offset" />
          </mxGeometry>
        </mxCell>
        <mxCell id="RajAqQyUGsAF3_RqsOgA-10" value="&amp;lt;&amp;lt;create&amp;gt;&amp;gt;" style="html=1;verticalAlign=bottom;endArrow=block;rounded=0;exitX=-0.35;exitY=0.838;exitDx=0;exitDy=0;exitPerimeter=0;" parent="1" source="RajAqQyUGsAF3_RqsOgA-2" edge="1">
          <mxGeometry width="80" relative="1" as="geometry">
            <mxPoint x="275.78" y="245" as="sourcePoint" />
            <mxPoint x="600" y="250" as="targetPoint" />
          </mxGeometry>
        </mxCell>
        <mxCell id="RajAqQyUGsAF3_RqsOgA-11" value="Commande créer" style="html=1;verticalAlign=bottom;endArrow=open;dashed=1;endSize=8;rounded=0;exitX=1;exitY=0;exitDx=0;exitDy=0;" parent="1" source="RajAqQyUGsAF3_RqsOgA-2" target="CBQdQQmrXeCsM5Ka3cLZ-1" edge="1">
          <mxGeometry relative="1" as="geometry">
            <mxPoint x="235.78" y="270" as="sourcePoint" />
            <mxPoint x="125.59034482758625" y="270" as="targetPoint" />
          </mxGeometry>
        </mxCell>
        <mxCell id="CBQdQQmrXeCsM5Ka3cLZ-1" value=":client" style="shape=umlLifeline;participant=umlActor;perimeter=lifelinePerimeter;whiteSpace=wrap;html=1;container=1;collapsible=0;recursiveResize=0;verticalAlign=top;spacingTop=36;outlineConnect=0;labelBackgroundColor=default;" parent="1" vertex="1">
          <mxGeometry x="110" y="40" width="20" height="720" as="geometry" />
        </mxCell>
        <mxCell id="_Wov2WdpDqVUPnZRLDTh-1" value=":interface" style="shape=umlLifeline;perimeter=lifelinePerimeter;whiteSpace=wrap;html=1;container=1;collapsible=0;recursiveResize=0;outlineConnect=0;labelBackgroundColor=default;" parent="1" vertex="1">
          <mxGeometry x="270" y="40" width="155" height="720" as="geometry" />
        </mxCell>
        <mxCell id="RajAqQyUGsAF3_RqsOgA-1" value="" style="html=1;points=[];perimeter=orthogonalPerimeter;labelBackgroundColor=default;" parent="_Wov2WdpDqVUPnZRLDTh-1" vertex="1">
          <mxGeometry x="72.5" y="70" width="10" height="90" as="geometry" />
        </mxCell>
        <mxCell id="RajAqQyUGsAF3_RqsOgA-2" value="" style="rounded=0;whiteSpace=wrap;html=1;labelBackgroundColor=default;direction=west;" parent="_Wov2WdpDqVUPnZRLDTh-1" vertex="1">
          <mxGeometry x="72.5" y="190" width="10" height="130" as="geometry" />
        </mxCell>
        <mxCell id="P2n7o3ufEzy1ieZB_ELa-1" value="nouvelle commande : commande" style="shape=umlLifeline;perimeter=lifelinePerimeter;whiteSpace=wrap;html=1;container=1;collapsible=0;recursiveResize=0;outlineConnect=0;labelBackgroundColor=default;" parent="1" vertex="1">
          <mxGeometry x="610" y="230" width="170" height="450" as="geometry" />
        </mxCell>
        <mxCell id="P2n7o3ufEzy1ieZB_ELa-5" value="return commande(obj)" style="html=1;verticalAlign=bottom;endArrow=open;dashed=1;endSize=8;rounded=0;" parent="1" source="P2n7o3ufEzy1ieZB_ELa-1" target="_Wov2WdpDqVUPnZRLDTh-1" edge="1">
          <mxGeometry relative="1" as="geometry">
            <mxPoint x="630" y="320" as="sourcePoint" />
            <mxPoint x="550" y="320" as="targetPoint" />
            <Array as="points">
              <mxPoint x="550" y="300" />
            </Array>
          </mxGeometry>
        </mxCell>
      </root>
    </mxGraphModel>
  </diagram>
  <diagram id="rWwwbDFQFyol8ib_t9C_" name="Ajout plat du jour">
    <mxGraphModel dx="1422" dy="795" grid="1" gridSize="10" guides="1" tooltips="1" connect="1" arrows="1" fold="1" page="1" pageScale="1" pageWidth="1169" pageHeight="827" math="0" shadow="0">
      <root>
        <mxCell id="0" />
        <mxCell id="1" parent="0" />
        <mxCell id="J0B3L8QebHQKtK_LHZ3j-37" value="LOOP" style="shape=umlFrame;whiteSpace=wrap;html=1;labelBackgroundColor=default;" parent="1" vertex="1">
          <mxGeometry x="20" y="215" width="1040" height="430" as="geometry" />
        </mxCell>
        <mxCell id="J0B3L8QebHQKtK_LHZ3j-21" value="alt" style="shape=umlFrame;whiteSpace=wrap;html=1;labelBackgroundColor=default;" parent="1" vertex="1">
          <mxGeometry x="140" y="230" width="890" height="400" as="geometry" />
        </mxCell>
        <mxCell id="J0B3L8QebHQKtK_LHZ3j-1" value="" style="shape=umlLifeline;participant=umlActor;perimeter=lifelinePerimeter;whiteSpace=wrap;html=1;container=1;collapsible=0;recursiveResize=0;verticalAlign=top;spacingTop=36;outlineConnect=0;labelBackgroundColor=default;" parent="1" vertex="1">
          <mxGeometry x="320" y="40" width="20" height="630" as="geometry" />
        </mxCell>
        <mxCell id="J0B3L8QebHQKtK_LHZ3j-2" value=":interface" style="shape=umlLifeline;perimeter=lifelinePerimeter;whiteSpace=wrap;html=1;container=1;collapsible=0;recursiveResize=0;outlineConnect=0;labelBackgroundColor=default;" parent="1" vertex="1">
          <mxGeometry x="460" y="40" width="100" height="630" as="geometry" />
        </mxCell>
        <mxCell id="J0B3L8QebHQKtK_LHZ3j-5" value="" style="html=1;points=[];perimeter=orthogonalPerimeter;labelBackgroundColor=default;" parent="J0B3L8QebHQKtK_LHZ3j-2" vertex="1">
          <mxGeometry x="45" y="90" width="10" height="80" as="geometry" />
        </mxCell>
        <mxCell id="J0B3L8QebHQKtK_LHZ3j-11" value="" style="html=1;points=[];perimeter=orthogonalPerimeter;labelBackgroundColor=default;" parent="J0B3L8QebHQKtK_LHZ3j-2" vertex="1">
          <mxGeometry x="45" y="210" width="10" height="160" as="geometry" />
        </mxCell>
        <mxCell id="J0B3L8QebHQKtK_LHZ3j-23" value="" style="html=1;points=[];perimeter=orthogonalPerimeter;labelBackgroundColor=default;" parent="J0B3L8QebHQKtK_LHZ3j-2" vertex="1">
          <mxGeometry x="45" y="400" width="10" height="80" as="geometry" />
        </mxCell>
        <mxCell id="J0B3L8QebHQKtK_LHZ3j-3" value="nouvelle commande: Commande" style="shape=umlLifeline;perimeter=lifelinePerimeter;whiteSpace=wrap;html=1;container=1;collapsible=0;recursiveResize=0;outlineConnect=0;labelBackgroundColor=default;" parent="1" vertex="1">
          <mxGeometry x="650" y="40" width="170" height="640" as="geometry" />
        </mxCell>
        <mxCell id="J0B3L8QebHQKtK_LHZ3j-18" value="" style="html=1;points=[];perimeter=orthogonalPerimeter;labelBackgroundColor=default;" parent="J0B3L8QebHQKtK_LHZ3j-3" vertex="1">
          <mxGeometry x="80" y="270" width="10" height="70" as="geometry" />
        </mxCell>
        <mxCell id="J0B3L8QebHQKtK_LHZ3j-26" value="" style="html=1;points=[];perimeter=orthogonalPerimeter;labelBackgroundColor=default;" parent="J0B3L8QebHQKtK_LHZ3j-3" vertex="1">
          <mxGeometry x="80" y="410" width="10" height="60" as="geometry" />
        </mxCell>
        <mxCell id="J0B3L8QebHQKtK_LHZ3j-4" value=":plat_du_jour" style="shape=umlLifeline;perimeter=lifelinePerimeter;whiteSpace=wrap;html=1;container=1;collapsible=0;recursiveResize=0;outlineConnect=0;labelBackgroundColor=default;" parent="1" vertex="1">
          <mxGeometry x="920" y="40" width="100" height="640" as="geometry" />
        </mxCell>
        <mxCell id="J0B3L8QebHQKtK_LHZ3j-8" value="" style="html=1;points=[];perimeter=orthogonalPerimeter;labelBackgroundColor=default;" parent="J0B3L8QebHQKtK_LHZ3j-4" vertex="1">
          <mxGeometry x="45" y="100" width="10" height="60" as="geometry" />
        </mxCell>
        <mxCell id="J0B3L8QebHQKtK_LHZ3j-14" value="" style="html=1;points=[];perimeter=orthogonalPerimeter;labelBackgroundColor=default;" parent="J0B3L8QebHQKtK_LHZ3j-4" vertex="1">
          <mxGeometry x="45" y="220" width="10" height="60" as="geometry" />
        </mxCell>
        <mxCell id="J0B3L8QebHQKtK_LHZ3j-6" value="demander tout les plats du jour" style="html=1;verticalAlign=bottom;endArrow=block;entryX=0;entryY=0;rounded=0;" parent="1" source="J0B3L8QebHQKtK_LHZ3j-1" target="J0B3L8QebHQKtK_LHZ3j-5" edge="1">
          <mxGeometry relative="1" as="geometry">
            <mxPoint x="435" y="130" as="sourcePoint" />
          </mxGeometry>
        </mxCell>
        <mxCell id="J0B3L8QebHQKtK_LHZ3j-7" value="afficher plats du jour" style="html=1;verticalAlign=bottom;endArrow=open;dashed=1;endSize=8;exitX=0;exitY=0.95;rounded=0;" parent="1" source="J0B3L8QebHQKtK_LHZ3j-5" target="J0B3L8QebHQKtK_LHZ3j-1" edge="1">
          <mxGeometry relative="1" as="geometry">
            <mxPoint x="435" y="206" as="targetPoint" />
          </mxGeometry>
        </mxCell>
        <mxCell id="J0B3L8QebHQKtK_LHZ3j-10" value="renvoyer tout les plats du jour (array)" style="html=1;verticalAlign=bottom;endArrow=open;dashed=1;endSize=8;exitX=0;exitY=0.95;rounded=0;" parent="1" source="J0B3L8QebHQKtK_LHZ3j-8" edge="1">
          <mxGeometry x="0.5148" relative="1" as="geometry">
            <mxPoint x="509.5" y="197" as="targetPoint" />
            <Array as="points" />
            <mxPoint as="offset" />
          </mxGeometry>
        </mxCell>
        <mxCell id="J0B3L8QebHQKtK_LHZ3j-9" value="selectionner plat jour(date)" style="html=1;verticalAlign=bottom;endArrow=block;entryX=0;entryY=0;rounded=0;" parent="1" source="J0B3L8QebHQKtK_LHZ3j-2" target="J0B3L8QebHQKtK_LHZ3j-8" edge="1">
          <mxGeometry x="0.4951" relative="1" as="geometry">
            <mxPoint x="600" y="150" as="sourcePoint" />
            <mxPoint as="offset" />
          </mxGeometry>
        </mxCell>
        <mxCell id="J0B3L8QebHQKtK_LHZ3j-12" value="ajouter plat du jour(id,nb)" style="html=1;verticalAlign=bottom;endArrow=block;entryX=0;entryY=0;rounded=0;" parent="1" source="J0B3L8QebHQKtK_LHZ3j-1" target="J0B3L8QebHQKtK_LHZ3j-11" edge="1">
          <mxGeometry x="0.0313" relative="1" as="geometry">
            <mxPoint x="435" y="250" as="sourcePoint" />
            <mxPoint x="1" as="offset" />
          </mxGeometry>
        </mxCell>
        <mxCell id="J0B3L8QebHQKtK_LHZ3j-16" value="add_to_command (obj,nb)" style="html=1;verticalAlign=bottom;endArrow=open;endSize=8;exitX=0;exitY=0.95;rounded=0;entryX=1;entryY=0.129;entryDx=0;entryDy=0;entryPerimeter=0;" parent="1" source="J0B3L8QebHQKtK_LHZ3j-14" target="J0B3L8QebHQKtK_LHZ3j-18" edge="1">
          <mxGeometry x="-0.1556" y="-1" relative="1" as="geometry">
            <mxPoint x="760" y="317" as="targetPoint" />
            <mxPoint as="offset" />
          </mxGeometry>
        </mxCell>
        <mxCell id="J0B3L8QebHQKtK_LHZ3j-15" value="add_plat_du_jour_to command(id,nb)" style="html=1;verticalAlign=bottom;endArrow=block;rounded=0;exitX=1.2;exitY=0.125;exitDx=0;exitDy=0;exitPerimeter=0;" parent="1" source="J0B3L8QebHQKtK_LHZ3j-11" target="J0B3L8QebHQKtK_LHZ3j-14" edge="1">
          <mxGeometry x="0.3527" relative="1" as="geometry">
            <mxPoint x="895" y="260" as="sourcePoint" />
            <mxPoint as="offset" />
          </mxGeometry>
        </mxCell>
        <mxCell id="J0B3L8QebHQKtK_LHZ3j-20" value="return plat du jour added&amp;nbsp;" style="html=1;verticalAlign=bottom;endArrow=open;dashed=1;endSize=8;exitX=0;exitY=0.95;rounded=0;" parent="1" source="J0B3L8QebHQKtK_LHZ3j-18" target="J0B3L8QebHQKtK_LHZ3j-2" edge="1">
          <mxGeometry x="-0.093" y="-6" relative="1" as="geometry">
            <mxPoint x="510" y="380" as="targetPoint" />
            <mxPoint as="offset" />
          </mxGeometry>
        </mxCell>
        <mxCell id="J0B3L8QebHQKtK_LHZ3j-13" value="afficher plat du jour ajouter" style="html=1;verticalAlign=bottom;endArrow=open;dashed=1;endSize=8;exitX=0;exitY=0.95;rounded=0;" parent="1" source="J0B3L8QebHQKtK_LHZ3j-11" target="J0B3L8QebHQKtK_LHZ3j-1" edge="1">
          <mxGeometry relative="1" as="geometry">
            <mxPoint x="340" y="374" as="targetPoint" />
          </mxGeometry>
        </mxCell>
        <mxCell id="J0B3L8QebHQKtK_LHZ3j-24" value="ajouter plat du jour(id,nb)" style="html=1;verticalAlign=bottom;endArrow=block;entryX=0;entryY=0;rounded=0;" parent="1" source="J0B3L8QebHQKtK_LHZ3j-1" target="J0B3L8QebHQKtK_LHZ3j-23" edge="1">
          <mxGeometry relative="1" as="geometry">
            <mxPoint x="435" y="440" as="sourcePoint" />
          </mxGeometry>
        </mxCell>
        <mxCell id="J0B3L8QebHQKtK_LHZ3j-25" value="affiché nouvelle commande" style="html=1;verticalAlign=bottom;endArrow=open;dashed=1;endSize=8;exitX=0;exitY=0.95;rounded=0;" parent="1" source="J0B3L8QebHQKtK_LHZ3j-23" target="J0B3L8QebHQKtK_LHZ3j-1" edge="1">
          <mxGeometry relative="1" as="geometry">
            <mxPoint x="435" y="516" as="targetPoint" />
          </mxGeometry>
        </mxCell>
        <mxCell id="J0B3L8QebHQKtK_LHZ3j-27" value="set_plat_du_jour(id,nb)" style="html=1;verticalAlign=bottom;endArrow=block;entryX=0;entryY=0;rounded=0;" parent="1" source="J0B3L8QebHQKtK_LHZ3j-2" target="J0B3L8QebHQKtK_LHZ3j-26" edge="1">
          <mxGeometry relative="1" as="geometry">
            <mxPoint x="660" y="450" as="sourcePoint" />
          </mxGeometry>
        </mxCell>
        <mxCell id="J0B3L8QebHQKtK_LHZ3j-28" value="commande modifié" style="html=1;verticalAlign=bottom;endArrow=open;dashed=1;endSize=8;exitX=0;exitY=0.95;rounded=0;" parent="1" source="J0B3L8QebHQKtK_LHZ3j-26" target="J0B3L8QebHQKtK_LHZ3j-2" edge="1">
          <mxGeometry relative="1" as="geometry">
            <mxPoint x="660" y="526" as="targetPoint" />
          </mxGeometry>
        </mxCell>
        <mxCell id="J0B3L8QebHQKtK_LHZ3j-30" value="" style="line;strokeWidth=1;fillColor=none;align=left;verticalAlign=middle;spacingTop=-1;spacingLeft=3;spacingRight=3;rotatable=0;labelPosition=right;points=[];portConstraint=eastwest;strokeColor=inherit;labelBackgroundColor=default;" parent="1" vertex="1">
          <mxGeometry x="140" y="410" width="890" height="8" as="geometry" />
        </mxCell>
        <mxCell id="J0B3L8QebHQKtK_LHZ3j-32" value="Plat du jour est déjà dans la commande" style="text;html=1;strokeColor=none;fillColor=none;align=center;verticalAlign=middle;whiteSpace=wrap;rounded=0;labelBackgroundColor=default;" parent="1" vertex="1">
          <mxGeometry x="150" y="450" width="100" height="50" as="geometry" />
        </mxCell>
        <mxCell id="J0B3L8QebHQKtK_LHZ3j-33" value="Plat du jour n&#39;est pas encore commandé" style="text;html=1;strokeColor=none;fillColor=none;align=center;verticalAlign=middle;whiteSpace=wrap;rounded=0;labelBackgroundColor=default;" parent="1" vertex="1">
          <mxGeometry x="150" y="280" width="110" height="55" as="geometry" />
        </mxCell>
        <mxCell id="J0B3L8QebHQKtK_LHZ3j-38" value="tant que l&#39;utilisateur ajoute des plats" style="text;html=1;strokeColor=none;fillColor=none;align=center;verticalAlign=middle;whiteSpace=wrap;rounded=0;labelBackgroundColor=default;" parent="1" vertex="1">
          <mxGeometry x="20" y="260" width="120" height="140" as="geometry" />
        </mxCell>
      </root>
    </mxGraphModel>
  </diagram>
  <diagram id="jDc6b_nOw9ktzHrDDDtZ" name="Livraison">
    <mxGraphModel dx="2591" dy="795" grid="1" gridSize="10" guides="1" tooltips="1" connect="1" arrows="1" fold="1" page="1" pageScale="1" pageWidth="1169" pageHeight="827" math="0" shadow="0">
      <root>
        <mxCell id="0" />
        <mxCell id="1" parent="0" />
        <mxCell id="a9y-s3n3Q5IsrBBC3ijX-1" value=":client" style="shape=umlLifeline;participant=umlActor;perimeter=lifelinePerimeter;whiteSpace=wrap;html=1;container=1;collapsible=0;recursiveResize=0;verticalAlign=top;spacingTop=36;outlineConnect=0;labelBackgroundColor=default;" parent="1" vertex="1">
          <mxGeometry x="90" y="30" width="30" height="940" as="geometry" />
        </mxCell>
        <mxCell id="nKR91GCkmYUranwBJFBh-1" value=":interface" style="shape=umlLifeline;perimeter=lifelinePerimeter;whiteSpace=wrap;html=1;container=1;collapsible=0;recursiveResize=0;outlineConnect=0;labelBackgroundColor=default;" parent="1" vertex="1">
          <mxGeometry x="210" y="40" width="155" height="880" as="geometry" />
        </mxCell>
        <mxCell id="AbKOkCZx4zwpr8xCR1f8-10" value="" style="rounded=0;whiteSpace=wrap;html=1;labelBackgroundColor=default;" parent="nKR91GCkmYUranwBJFBh-1" vertex="1">
          <mxGeometry x="67.5" y="110" width="20" height="170" as="geometry" />
        </mxCell>
        <mxCell id="AbKOkCZx4zwpr8xCR1f8-26" value="" style="rounded=0;whiteSpace=wrap;html=1;labelBackgroundColor=default;" parent="nKR91GCkmYUranwBJFBh-1" vertex="1">
          <mxGeometry x="67.5" y="380" width="20" height="50" as="geometry" />
        </mxCell>
        <mxCell id="AbKOkCZx4zwpr8xCR1f8-38" value="" style="rounded=0;whiteSpace=wrap;html=1;labelBackgroundColor=default;" parent="nKR91GCkmYUranwBJFBh-1" vertex="1">
          <mxGeometry x="67.5" y="480" width="20" height="120" as="geometry" />
        </mxCell>
        <mxCell id="AbKOkCZx4zwpr8xCR1f8-54" value="" style="rounded=0;whiteSpace=wrap;html=1;labelBackgroundColor=default;" parent="nKR91GCkmYUranwBJFBh-1" vertex="1">
          <mxGeometry x="73" y="710" width="10" height="50" as="geometry" />
        </mxCell>
        <mxCell id="AbKOkCZx4zwpr8xCR1f8-57" value="" style="html=1;points=[];perimeter=orthogonalPerimeter;labelBackgroundColor=default;" parent="nKR91GCkmYUranwBJFBh-1" vertex="1">
          <mxGeometry x="73" y="800" width="10" height="80" as="geometry" />
        </mxCell>
        <mxCell id="AbKOkCZx4zwpr8xCR1f8-61" value="set_livraison(livré)" style="html=1;verticalAlign=bottom;endArrow=block;rounded=0;" parent="nKR91GCkmYUranwBJFBh-1" target="HXi55ctqsRF7yVAdvEZ8-1" edge="1">
          <mxGeometry x="0.02" width="80" relative="1" as="geometry">
            <mxPoint x="90" y="820" as="sourcePoint" />
            <mxPoint x="170" y="820" as="targetPoint" />
            <mxPoint as="offset" />
          </mxGeometry>
        </mxCell>
        <mxCell id="HXi55ctqsRF7yVAdvEZ8-1" value="nouvelle commande : commande" style="shape=umlLifeline;perimeter=lifelinePerimeter;whiteSpace=wrap;html=1;container=1;collapsible=0;recursiveResize=0;outlineConnect=0;labelBackgroundColor=default;" parent="1" vertex="1">
          <mxGeometry x="450" y="40" width="250" height="1010" as="geometry" />
        </mxCell>
        <mxCell id="AbKOkCZx4zwpr8xCR1f8-1" value="" style="html=1;points=[];perimeter=orthogonalPerimeter;labelBackgroundColor=default;" parent="HXi55ctqsRF7yVAdvEZ8-1" vertex="1">
          <mxGeometry x="120" y="125" width="10" height="145" as="geometry" />
        </mxCell>
        <mxCell id="AbKOkCZx4zwpr8xCR1f8-31" value="" style="html=1;points=[];perimeter=orthogonalPerimeter;labelBackgroundColor=default;" parent="HXi55ctqsRF7yVAdvEZ8-1" vertex="1">
          <mxGeometry x="120" y="310" width="10" height="70" as="geometry" />
        </mxCell>
        <mxCell id="AbKOkCZx4zwpr8xCR1f8-41" value="" style="rounded=0;whiteSpace=wrap;html=1;labelBackgroundColor=default;" parent="HXi55ctqsRF7yVAdvEZ8-1" vertex="1">
          <mxGeometry x="120" y="490" width="20" height="100" as="geometry" />
        </mxCell>
        <mxCell id="AbKOkCZx4zwpr8xCR1f8-45" value="get Location" style="html=1;verticalAlign=bottom;endArrow=block;rounded=0;entryX=0;entryY=0;entryDx=0;entryDy=0;" parent="HXi55ctqsRF7yVAdvEZ8-1" target="AbKOkCZx4zwpr8xCR1f8-40" edge="1">
          <mxGeometry x="0.0526" width="80" relative="1" as="geometry">
            <mxPoint x="140" y="510" as="sourcePoint" />
            <mxPoint x="220" y="510" as="targetPoint" />
            <mxPoint as="offset" />
          </mxGeometry>
        </mxCell>
        <mxCell id="AbKOkCZx4zwpr8xCR1f8-60" value="" style="html=1;points=[];perimeter=orthogonalPerimeter;labelBackgroundColor=default;" parent="HXi55ctqsRF7yVAdvEZ8-1" vertex="1">
          <mxGeometry x="120" y="820" width="10" height="80" as="geometry" />
        </mxCell>
        <mxCell id="AbKOkCZx4zwpr8xCR1f8-62" value="livraison validée" style="html=1;verticalAlign=bottom;endArrow=open;dashed=1;endSize=8;rounded=0;" parent="HXi55ctqsRF7yVAdvEZ8-1" target="nKR91GCkmYUranwBJFBh-1" edge="1">
          <mxGeometry relative="1" as="geometry">
            <mxPoint x="120" y="870" as="sourcePoint" />
            <mxPoint x="40" y="870" as="targetPoint" />
          </mxGeometry>
        </mxCell>
        <mxCell id="AbKOkCZx4zwpr8xCR1f8-65" value="" style="shape=umlDestroy;whiteSpace=wrap;html=1;strokeWidth=3;labelBackgroundColor=default;" parent="HXi55ctqsRF7yVAdvEZ8-1" vertex="1">
          <mxGeometry x="110" y="930" width="30" height="30" as="geometry" />
        </mxCell>
        <mxCell id="AbKOkCZx4zwpr8xCR1f8-66" value="&amp;lt;&amp;lt;destroy&amp;gt;&amp;gt;" style="html=1;verticalAlign=bottom;endArrow=block;rounded=0;entryX=0.633;entryY=0.4;entryDx=0;entryDy=0;entryPerimeter=0;edgeStyle=orthogonalEdgeStyle;" parent="HXi55ctqsRF7yVAdvEZ8-1" target="AbKOkCZx4zwpr8xCR1f8-65" edge="1">
          <mxGeometry width="80" relative="1" as="geometry">
            <mxPoint x="130" y="900" as="sourcePoint" />
            <mxPoint x="210" y="900" as="targetPoint" />
            <Array as="points">
              <mxPoint x="170" y="900" />
              <mxPoint x="170" y="942" />
            </Array>
          </mxGeometry>
        </mxCell>
        <mxCell id="ud5DP4p7aLYsHh7P84K2-1" value=":livreur" style="shape=umlLifeline;perimeter=lifelinePerimeter;whiteSpace=wrap;html=1;container=1;collapsible=0;recursiveResize=0;outlineConnect=0;labelBackgroundColor=default;" parent="1" vertex="1">
          <mxGeometry x="740" y="40" width="100" height="374" as="geometry" />
        </mxCell>
        <mxCell id="AbKOkCZx4zwpr8xCR1f8-14" value="" style="html=1;points=[];perimeter=orthogonalPerimeter;labelBackgroundColor=default;" parent="ud5DP4p7aLYsHh7P84K2-1" vertex="1">
          <mxGeometry x="45" y="180" width="10" height="60" as="geometry" />
        </mxCell>
        <mxCell id="AbKOkCZx4zwpr8xCR1f8-15" value="chercher livreur proche (loc_client)" style="edgeStyle=orthogonalEdgeStyle;html=1;align=left;spacingLeft=2;endArrow=block;rounded=0;entryX=1;entryY=0;" parent="ud5DP4p7aLYsHh7P84K2-1" target="AbKOkCZx4zwpr8xCR1f8-14" edge="1">
          <mxGeometry relative="1" as="geometry">
            <mxPoint x="45" y="145" as="sourcePoint" />
            <Array as="points">
              <mxPoint x="75" y="145" />
            </Array>
          </mxGeometry>
        </mxCell>
        <mxCell id="AbKOkCZx4zwpr8xCR1f8-40" value="" style="rounded=0;whiteSpace=wrap;html=1;labelBackgroundColor=default;" parent="ud5DP4p7aLYsHh7P84K2-1" vertex="1">
          <mxGeometry x="40" y="510" width="20" height="40" as="geometry" />
        </mxCell>
        <mxCell id="AbKOkCZx4zwpr8xCR1f8-68" value="" style="shape=umlDestroy;whiteSpace=wrap;html=1;strokeWidth=3;labelBackgroundColor=default;" parent="ud5DP4p7aLYsHh7P84K2-1" vertex="1">
          <mxGeometry x="35" y="344" width="30" height="30" as="geometry" />
        </mxCell>
        <mxCell id="rrxOjxgoAznST80-kO1r-1" value=":livreur" style="shape=umlLifeline;participant=umlActor;perimeter=lifelinePerimeter;whiteSpace=wrap;html=1;container=1;collapsible=0;recursiveResize=0;verticalAlign=top;spacingTop=36;outlineConnect=0;labelBackgroundColor=default;" parent="1" vertex="1">
          <mxGeometry x="1149" y="45" width="20" height="795" as="geometry" />
        </mxCell>
        <mxCell id="coOQmaFjwqgdMIwbomKw-1" value="interface livreur : interface" style="shape=umlLifeline;perimeter=lifelinePerimeter;whiteSpace=wrap;html=1;container=1;collapsible=0;recursiveResize=0;outlineConnect=0;labelBackgroundColor=default;" parent="1" vertex="1">
          <mxGeometry x="950" y="40" width="100" height="860" as="geometry" />
        </mxCell>
        <mxCell id="AbKOkCZx4zwpr8xCR1f8-12" value="" style="rounded=0;whiteSpace=wrap;html=1;labelBackgroundColor=default;" parent="coOQmaFjwqgdMIwbomKw-1" vertex="1">
          <mxGeometry x="40" y="230" width="20" height="110" as="geometry" />
        </mxCell>
        <mxCell id="AbKOkCZx4zwpr8xCR1f8-8" value="trouverLivreur proche" style="html=1;verticalAlign=bottom;endArrow=block;rounded=0;snapToPoint=1;fixDash=1;bendable=0;" parent="1" source="AbKOkCZx4zwpr8xCR1f8-1" edge="1">
          <mxGeometry x="0.0036" y="10" width="80" relative="1" as="geometry">
            <mxPoint x="600.5" y="175" as="sourcePoint" />
            <mxPoint x="789.5" y="176" as="targetPoint" />
            <Array as="points">
              <mxPoint x="660.5" y="176" />
              <mxPoint x="680.5" y="176" />
            </Array>
            <mxPoint as="offset" />
          </mxGeometry>
        </mxCell>
        <mxCell id="AbKOkCZx4zwpr8xCR1f8-2" value="valider commande" style="html=1;verticalAlign=bottom;endArrow=block;entryX=0;entryY=0;rounded=0;" parent="1" source="a9y-s3n3Q5IsrBBC3ijX-1" edge="1">
          <mxGeometry relative="1" as="geometry">
            <mxPoint x="120" y="155" as="sourcePoint" />
            <mxPoint x="283.5" y="155" as="targetPoint" />
          </mxGeometry>
        </mxCell>
        <mxCell id="AbKOkCZx4zwpr8xCR1f8-3" value="validation" style="html=1;verticalAlign=bottom;endArrow=block;entryX=0;entryY=0;rounded=0;startArrow=none;" parent="1" source="HLUyuJRajK3jOtlAEOsr-4" target="AbKOkCZx4zwpr8xCR1f8-1" edge="1">
          <mxGeometry relative="1" as="geometry">
            <mxPoint x="287" y="165" as="sourcePoint" />
          </mxGeometry>
        </mxCell>
        <mxCell id="AbKOkCZx4zwpr8xCR1f8-7" value="Commande en cours" style="html=1;verticalAlign=bottom;endArrow=open;dashed=1;endSize=8;exitX=0;exitY=0.95;rounded=0;entryX=1.225;entryY=0.871;entryDx=0;entryDy=0;entryPerimeter=0;" parent="1" source="AbKOkCZx4zwpr8xCR1f8-1" target="AbKOkCZx4zwpr8xCR1f8-10" edge="1">
          <mxGeometry x="-0.0698" y="14" relative="1" as="geometry">
            <mxPoint x="287" y="241" as="targetPoint" />
            <Array as="points">
              <mxPoint x="520" y="303" />
              <mxPoint x="360" y="298" />
            </Array>
            <mxPoint as="offset" />
          </mxGeometry>
        </mxCell>
        <mxCell id="AbKOkCZx4zwpr8xCR1f8-5" value="atribuer commande" style="html=1;verticalAlign=bottom;endArrow=open;endSize=8;rounded=0;entryX=0;entryY=0;entryDx=0;entryDy=0;" parent="1" source="ud5DP4p7aLYsHh7P84K2-1" target="AbKOkCZx4zwpr8xCR1f8-12" edge="1">
          <mxGeometry x="0.0334" relative="1" as="geometry">
            <mxPoint x="795" y="330" as="sourcePoint" />
            <mxPoint x="890" y="200" as="targetPoint" />
            <mxPoint as="offset" />
          </mxGeometry>
        </mxCell>
        <mxCell id="AbKOkCZx4zwpr8xCR1f8-17" style="rounded=0;orthogonalLoop=1;jettySize=auto;html=1;exitX=0;exitY=1;exitDx=0;exitDy=0;dashed=1;endArrow=open;endFill=0;" parent="1" source="AbKOkCZx4zwpr8xCR1f8-10" target="a9y-s3n3Q5IsrBBC3ijX-1" edge="1">
          <mxGeometry relative="1" as="geometry" />
        </mxCell>
        <mxCell id="AbKOkCZx4zwpr8xCR1f8-18" value="Commande en attente de livreur" style="edgeLabel;html=1;align=center;verticalAlign=middle;resizable=0;points=[];" parent="AbKOkCZx4zwpr8xCR1f8-17" vertex="1" connectable="0">
          <mxGeometry x="-0.2753" y="-3" relative="1" as="geometry">
            <mxPoint x="-23" y="-7" as="offset" />
          </mxGeometry>
        </mxCell>
        <mxCell id="AbKOkCZx4zwpr8xCR1f8-19" style="edgeStyle=none;rounded=0;orthogonalLoop=1;jettySize=auto;html=1;exitX=1;exitY=0.25;exitDx=0;exitDy=0;endArrow=open;endFill=0;" parent="1" source="AbKOkCZx4zwpr8xCR1f8-12" target="rrxOjxgoAznST80-kO1r-1" edge="1">
          <mxGeometry relative="1" as="geometry" />
        </mxCell>
        <mxCell id="AbKOkCZx4zwpr8xCR1f8-21" value="nouvelle commande" style="edgeLabel;html=1;align=center;verticalAlign=middle;resizable=0;points=[];" parent="AbKOkCZx4zwpr8xCR1f8-19" vertex="1" connectable="0">
          <mxGeometry x="0.3333" y="4" relative="1" as="geometry">
            <mxPoint x="-19" y="-6" as="offset" />
          </mxGeometry>
        </mxCell>
        <mxCell id="AbKOkCZx4zwpr8xCR1f8-23" style="edgeStyle=none;rounded=0;orthogonalLoop=1;jettySize=auto;html=1;exitX=1;exitY=0.636;exitDx=0;exitDy=0;endArrow=none;endFill=0;startArrow=classic;startFill=1;exitPerimeter=0;" parent="1" source="AbKOkCZx4zwpr8xCR1f8-12" target="rrxOjxgoAznST80-kO1r-1" edge="1">
          <mxGeometry relative="1" as="geometry" />
        </mxCell>
        <mxCell id="AbKOkCZx4zwpr8xCR1f8-24" value="commande accépté" style="edgeLabel;html=1;align=center;verticalAlign=middle;resizable=0;points=[];" parent="AbKOkCZx4zwpr8xCR1f8-23" vertex="1" connectable="0">
          <mxGeometry x="0.3872" y="2" relative="1" as="geometry">
            <mxPoint x="-23" y="-8" as="offset" />
          </mxGeometry>
        </mxCell>
        <mxCell id="AbKOkCZx4zwpr8xCR1f8-27" style="edgeStyle=none;rounded=0;orthogonalLoop=1;jettySize=auto;html=1;startArrow=none;startFill=0;endArrow=classic;endFill=1;entryX=1;entryY=0.007;entryDx=0;entryDy=0;entryPerimeter=0;" parent="1" target="AbKOkCZx4zwpr8xCR1f8-31" edge="1">
          <mxGeometry relative="1" as="geometry">
            <mxPoint x="990" y="350" as="sourcePoint" />
            <mxPoint x="600" y="350" as="targetPoint" />
          </mxGeometry>
        </mxCell>
        <mxCell id="AbKOkCZx4zwpr8xCR1f8-30" value="set_livreur (id)&amp;nbsp;" style="edgeLabel;html=1;align=center;verticalAlign=middle;resizable=0;points=[];" parent="AbKOkCZx4zwpr8xCR1f8-27" vertex="1" connectable="0">
          <mxGeometry x="0.7405" y="-3" relative="1" as="geometry">
            <mxPoint x="117" y="-8" as="offset" />
          </mxGeometry>
        </mxCell>
        <mxCell id="AbKOkCZx4zwpr8xCR1f8-33" value="Commande en cours" style="html=1;verticalAlign=bottom;endArrow=open;dashed=1;endSize=8;rounded=0;" parent="1" source="ud5DP4p7aLYsHh7P84K2-1" edge="1">
          <mxGeometry relative="1" as="geometry">
            <mxPoint x="760" y="270" as="sourcePoint" />
            <mxPoint x="580" y="280" as="targetPoint" />
            <Array as="points">
              <mxPoint x="770" y="280" />
            </Array>
          </mxGeometry>
        </mxCell>
        <mxCell id="AbKOkCZx4zwpr8xCR1f8-34" value="commande en livraison(ETA, id_livreur)" style="html=1;verticalAlign=bottom;endArrow=classic;endSize=8;rounded=0;endFill=1;" parent="1" source="HXi55ctqsRF7yVAdvEZ8-1" edge="1">
          <mxGeometry relative="1" as="geometry">
            <mxPoint x="540" y="420" as="sourcePoint" />
            <mxPoint x="300" y="420" as="targetPoint" />
            <Array as="points">
              <mxPoint x="550" y="420" />
            </Array>
          </mxGeometry>
        </mxCell>
        <mxCell id="AbKOkCZx4zwpr8xCR1f8-35" value="commande en livraison" style="html=1;verticalAlign=bottom;endArrow=open;dashed=1;endSize=8;rounded=0;exitX=0;exitY=1;exitDx=0;exitDy=0;" parent="1" source="AbKOkCZx4zwpr8xCR1f8-26" target="a9y-s3n3Q5IsrBBC3ijX-1" edge="1">
          <mxGeometry x="-0.0169" relative="1" as="geometry">
            <mxPoint x="270" y="470" as="sourcePoint" />
            <mxPoint x="190" y="470" as="targetPoint" />
            <mxPoint as="offset" />
          </mxGeometry>
        </mxCell>
        <mxCell id="AbKOkCZx4zwpr8xCR1f8-36" value="Loop" style="shape=umlFrame;whiteSpace=wrap;html=1;labelBackgroundColor=default;" parent="1" vertex="1">
          <mxGeometry x="-170" y="475" width="1470" height="200" as="geometry" />
        </mxCell>
        <mxCell id="AbKOkCZx4zwpr8xCR1f8-37" value="check ETA" style="html=1;verticalAlign=bottom;endArrow=block;rounded=0;entryX=0;entryY=0;entryDx=0;entryDy=0;" parent="1" target="AbKOkCZx4zwpr8xCR1f8-38" edge="1">
          <mxGeometry width="80" relative="1" as="geometry">
            <mxPoint x="100" y="520" as="sourcePoint" />
            <mxPoint x="260" y="520" as="targetPoint" />
          </mxGeometry>
        </mxCell>
        <mxCell id="AbKOkCZx4zwpr8xCR1f8-42" style="edgeStyle=none;rounded=0;orthogonalLoop=1;jettySize=auto;html=1;startArrow=none;startFill=0;endArrow=classic;endFill=1;" parent="1" target="HXi55ctqsRF7yVAdvEZ8-1" edge="1">
          <mxGeometry relative="1" as="geometry">
            <mxPoint x="300" y="530" as="sourcePoint" />
          </mxGeometry>
        </mxCell>
        <mxCell id="AbKOkCZx4zwpr8xCR1f8-44" value="get ETA(adresse_client)" style="edgeLabel;html=1;align=center;verticalAlign=middle;resizable=0;points=[];" parent="AbKOkCZx4zwpr8xCR1f8-42" vertex="1" connectable="0">
          <mxGeometry x="0.0822" y="3" relative="1" as="geometry">
            <mxPoint x="-5" y="-5" as="offset" />
          </mxGeometry>
        </mxCell>
        <mxCell id="AbKOkCZx4zwpr8xCR1f8-46" value="return Location" style="html=1;verticalAlign=bottom;endArrow=open;dashed=1;endSize=8;rounded=0;entryX=1.2;entryY=0.61;entryDx=0;entryDy=0;entryPerimeter=0;" parent="1" target="AbKOkCZx4zwpr8xCR1f8-41" edge="1">
          <mxGeometry relative="1" as="geometry">
            <mxPoint x="780" y="590" as="sourcePoint" />
            <mxPoint x="700" y="590" as="targetPoint" />
          </mxGeometry>
        </mxCell>
        <mxCell id="AbKOkCZx4zwpr8xCR1f8-48" value="return ETA" style="html=1;verticalAlign=bottom;endArrow=open;dashed=1;endSize=8;rounded=0;entryX=1.175;entryY=0.908;entryDx=0;entryDy=0;entryPerimeter=0;" parent="1" source="HXi55ctqsRF7yVAdvEZ8-1" target="AbKOkCZx4zwpr8xCR1f8-38" edge="1">
          <mxGeometry relative="1" as="geometry">
            <mxPoint x="540" y="630" as="sourcePoint" />
            <mxPoint x="460" y="630" as="targetPoint" />
          </mxGeometry>
        </mxCell>
        <mxCell id="AbKOkCZx4zwpr8xCR1f8-49" value="affiche ETA" style="html=1;verticalAlign=bottom;endArrow=open;dashed=1;endSize=8;rounded=0;" parent="1" target="a9y-s3n3Q5IsrBBC3ijX-1" edge="1">
          <mxGeometry x="-0.0616" relative="1" as="geometry">
            <mxPoint x="270" y="640" as="sourcePoint" />
            <mxPoint x="190" y="640" as="targetPoint" />
            <mxPoint as="offset" />
          </mxGeometry>
        </mxCell>
        <mxCell id="AbKOkCZx4zwpr8xCR1f8-50" value="Tant que le livreur n&#39;est pas arrivé" style="text;html=1;strokeColor=none;fillColor=none;align=center;verticalAlign=middle;whiteSpace=wrap;rounded=0;labelBackgroundColor=default;" parent="1" vertex="1">
          <mxGeometry x="-150" y="560" width="140" height="30" as="geometry" />
        </mxCell>
        <mxCell id="AbKOkCZx4zwpr8xCR1f8-52" style="edgeStyle=none;rounded=0;orthogonalLoop=1;jettySize=auto;html=1;exitX=0.75;exitY=0;exitDx=0;exitDy=0;startArrow=classic;startFill=1;endArrow=none;endFill=0;" parent="1" source="AbKOkCZx4zwpr8xCR1f8-51" target="rrxOjxgoAznST80-kO1r-1" edge="1">
          <mxGeometry relative="1" as="geometry" />
        </mxCell>
        <mxCell id="AbKOkCZx4zwpr8xCR1f8-53" value="est arrivé" style="edgeLabel;html=1;align=center;verticalAlign=middle;resizable=0;points=[];" parent="AbKOkCZx4zwpr8xCR1f8-52" vertex="1" connectable="0">
          <mxGeometry x="0.355" y="2" relative="1" as="geometry">
            <mxPoint x="-19" y="-8" as="offset" />
          </mxGeometry>
        </mxCell>
        <mxCell id="AbKOkCZx4zwpr8xCR1f8-51" value="" style="rounded=0;whiteSpace=wrap;html=1;labelBackgroundColor=default;" parent="1" vertex="1">
          <mxGeometry x="990" y="700" width="20" height="50" as="geometry" />
        </mxCell>
        <mxCell id="AbKOkCZx4zwpr8xCR1f8-55" value="livreur_on_location" style="html=1;verticalAlign=bottom;endArrow=block;rounded=0;exitX=0;exitY=1;exitDx=0;exitDy=0;entryX=1;entryY=0;entryDx=0;entryDy=0;" parent="1" source="AbKOkCZx4zwpr8xCR1f8-51" target="AbKOkCZx4zwpr8xCR1f8-54" edge="1">
          <mxGeometry x="-0.0758" width="80" relative="1" as="geometry">
            <mxPoint x="860" y="720" as="sourcePoint" />
            <mxPoint x="940" y="720" as="targetPoint" />
            <mxPoint as="offset" />
          </mxGeometry>
        </mxCell>
        <mxCell id="AbKOkCZx4zwpr8xCR1f8-56" value="commande arrivé" style="html=1;verticalAlign=bottom;endArrow=open;dashed=1;endSize=8;rounded=0;exitX=0;exitY=1;exitDx=0;exitDy=0;" parent="1" source="AbKOkCZx4zwpr8xCR1f8-54" target="a9y-s3n3Q5IsrBBC3ijX-1" edge="1">
          <mxGeometry relative="1" as="geometry">
            <mxPoint x="270" y="800" as="sourcePoint" />
            <mxPoint x="190" y="800" as="targetPoint" />
          </mxGeometry>
        </mxCell>
        <mxCell id="AbKOkCZx4zwpr8xCR1f8-59" value="valider livraison" style="html=1;verticalAlign=bottom;endArrow=block;rounded=0;" parent="1" source="a9y-s3n3Q5IsrBBC3ijX-1" edge="1">
          <mxGeometry width="80" relative="1" as="geometry">
            <mxPoint x="200" y="840" as="sourcePoint" />
            <mxPoint x="280" y="840" as="targetPoint" />
          </mxGeometry>
        </mxCell>
        <mxCell id="AbKOkCZx4zwpr8xCR1f8-69" value="&amp;lt;&amp;lt;destroy&amp;gt;&amp;gt;" style="html=1;verticalAlign=bottom;endArrow=block;rounded=0;exitX=-0.15;exitY=0.918;exitDx=0;exitDy=0;exitPerimeter=0;" parent="1" source="AbKOkCZx4zwpr8xCR1f8-12" target="ud5DP4p7aLYsHh7P84K2-1" edge="1">
          <mxGeometry x="-0.0177" y="19" width="80" relative="1" as="geometry">
            <mxPoint x="900" y="370" as="sourcePoint" />
            <mxPoint x="980" y="370" as="targetPoint" />
            <mxPoint as="offset" />
          </mxGeometry>
        </mxCell>
        <mxCell id="HLUyuJRajK3jOtlAEOsr-5" value="" style="edgeStyle=orthogonalEdgeStyle;rounded=0;orthogonalLoop=1;jettySize=auto;html=1;startArrow=classic;startFill=1;endArrow=none;endFill=0;dashed=1;dashPattern=1 4;" parent="1" source="HLUyuJRajK3jOtlAEOsr-1" target="HLUyuJRajK3jOtlAEOsr-4" edge="1">
          <mxGeometry relative="1" as="geometry">
            <Array as="points">
              <mxPoint x="-80" y="130" />
              <mxPoint x="385" y="130" />
            </Array>
          </mxGeometry>
        </mxCell>
        <mxCell id="HLUyuJRajK3jOtlAEOsr-1" value="La validation fera appel a un dialogue entre le système et la banque de l&#39;utilisateur non détaillé ici" style="shape=note;whiteSpace=wrap;html=1;backgroundOutline=1;darkOpacity=0.05;labelBackgroundColor=default;" parent="1" vertex="1">
          <mxGeometry x="-165" y="200" width="170" height="140" as="geometry" />
        </mxCell>
        <mxCell id="HLUyuJRajK3jOtlAEOsr-4" value="" style="shape=waypoint;sketch=0;size=6;pointerEvents=1;points=[];fillColor=default;resizable=0;rotatable=0;perimeter=centerPerimeter;snapToPoint=1;labelBackgroundColor=default;" parent="1" vertex="1">
          <mxGeometry x="365" y="150" width="40" height="40" as="geometry" />
        </mxCell>
        <mxCell id="HLUyuJRajK3jOtlAEOsr-6" value="" style="html=1;verticalAlign=bottom;endArrow=none;rounded=0;" parent="1" target="HLUyuJRajK3jOtlAEOsr-4" edge="1">
          <mxGeometry relative="1" as="geometry">
            <mxPoint x="287" y="165" as="sourcePoint" />
            <mxPoint x="570" y="165.00000000000023" as="targetPoint" />
          </mxGeometry>
        </mxCell>
      </root>
    </mxGraphModel>
  </diagram>
</mxfile>
